<?xml version="1.0" encoding="UTF-8" standalone="no"?>
<!-- Created with Inkscape (http://www.inkscape.org/) -->

<svg
   xmlns:dc="http://purl.org/dc/elements/1.1/"
   xmlns:cc="http://creativecommons.org/ns#"
   xmlns:rdf="http://www.w3.org/1999/02/22-rdf-syntax-ns#"
   xmlns:svg="http://www.w3.org/2000/svg"
   xmlns="http://www.w3.org/2000/svg"
   xmlns:sodipodi="http://sodipodi.sourceforge.net/DTD/sodipodi-0.dtd"
   xmlns:inkscape="http://www.inkscape.org/namespaces/inkscape"
   width="131.03265mm"
   height="131.10036mm"
   viewBox="0 0 131.03265 131.10036"
   version="1.1"
   id="svg8"
   inkscape:version="0.92.1 r15371"
   sodipodi:docname="pen.svg">
  <defs
     id="defs2" />
  <sodipodi:namedview
     id="base"
     pagecolor="#ffffff"
     bordercolor="#666666"
     borderopacity="1.0"
     inkscape:pageopacity="0.0"
     inkscape:pageshadow="2"
     inkscape:zoom="0.49497475"
     inkscape:cx="106.95096"
     inkscape:cy="253.21864"
     inkscape:document-units="mm"
     inkscape:current-layer="XMLID_13_"
     showgrid="false"
     inkscape:snap-global="false"
     fit-margin-top="0"
     fit-margin-left="0"
     fit-margin-right="0"
     fit-margin-bottom="0"
     inkscape:window-width="1366"
     inkscape:window-height="705"
     inkscape:window-x="-8"
     inkscape:window-y="-8"
     inkscape:window-maximized="1" />
  <metadata
     id="metadata5">
    <rdf:RDF>
      <cc:Work
         rdf:about="">
        <dc:format>image/svg+xml</dc:format>
        <dc:type
           rdf:resource="http://purl.org/dc/dcmitype/StillImage" />
        <dc:title></dc:title>
      </cc:Work>
    </rdf:RDF>
  </metadata>
  <g
     inkscape:label="Layer 1"
     inkscape:groupmode="layer"
     id="layer1"
     transform="translate(-37.689066,-103.70923)">
    <g
       id="g4495"
       transform="matrix(0.26458333,0,0,0.26458333,-71.794546,166.33282)" />
    <g
       id="g4497"
       transform="matrix(0.26458333,0,0,0.26458333,-71.794546,166.33282)" />
    <g
       id="g4499"
       transform="matrix(0.26458333,0,0,0.26458333,-71.794546,166.33282)" />
    <g
       id="g4501"
       transform="matrix(0.26458333,0,0,0.26458333,-71.794546,166.33282)" />
    <g
       id="g4503"
       transform="matrix(0.26458333,0,0,0.26458333,-71.794546,166.33282)" />
    <g
       id="g4505"
       transform="matrix(0.26458333,0,0,0.26458333,-71.794546,166.33282)" />
    <g
       id="g4507"
       transform="matrix(0.26458333,0,0,0.26458333,-71.794546,166.33282)" />
    <g
       id="g4509"
       transform="matrix(0.26458333,0,0,0.26458333,-71.794546,166.33282)" />
    <g
       id="g4511"
       transform="matrix(0.26458333,0,0,0.26458333,-71.794546,166.33282)" />
    <g
       id="g4513"
       transform="matrix(0.26458333,0,0,0.26458333,-71.794546,166.33282)" />
    <g
       id="g4515"
       transform="matrix(0.26458333,0,0,0.26458333,-71.794546,166.33282)" />
    <g
       id="g4517"
       transform="matrix(0.26458333,0,0,0.26458333,-71.794546,166.33282)" />
    <g
       id="g4519"
       transform="matrix(0.26458333,0,0,0.26458333,-71.794546,166.33282)" />
    <g
       id="g4521"
       transform="matrix(0.26458333,0,0,0.26458333,-71.794546,166.33282)" />
    <g
       id="g4523"
       transform="matrix(0.26458333,0,0,0.26458333,-71.794546,166.33282)" />
    <g
       id="g4527"
       transform="matrix(0.26458333,0,0,0.26458333,-71.794546,166.33282)" />
    <g
       id="g4529"
       transform="matrix(0.26458333,0,0,0.26458333,-71.794546,166.33282)" />
    <g
       id="g4531"
       transform="matrix(0.26458333,0,0,0.26458333,-71.794546,166.33282)" />
    <g
       id="g4533"
       transform="matrix(0.26458333,0,0,0.26458333,-71.794546,166.33282)" />
    <g
       id="g4535"
       transform="matrix(0.26458333,0,0,0.26458333,-71.794546,166.33282)" />
    <g
       id="g4537"
       transform="matrix(0.26458333,0,0,0.26458333,-71.794546,166.33282)" />
    <g
       id="g4539"
       transform="matrix(0.26458333,0,0,0.26458333,-71.794546,166.33282)" />
    <g
       id="g4541"
       transform="matrix(0.26458333,0,0,0.26458333,-71.794546,166.33282)" />
    <g
       id="g4543"
       transform="matrix(0.26458333,0,0,0.26458333,-71.794546,166.33282)" />
    <g
       id="g4545"
       transform="matrix(0.26458333,0,0,0.26458333,-71.794546,166.33282)" />
    <g
       id="g4547"
       transform="matrix(0.26458333,0,0,0.26458333,-71.794546,166.33282)" />
    <g
       id="g4549"
       transform="matrix(0.26458333,0,0,0.26458333,-71.794546,166.33282)" />
    <g
       id="g4551"
       transform="matrix(0.26458333,0,0,0.26458333,-71.794546,166.33282)" />
    <g
       id="g4553"
       transform="matrix(0.26458333,0,0,0.26458333,-71.794546,166.33282)" />
    <g
       id="g4555"
       transform="matrix(0.26458333,0,0,0.26458333,-71.794546,166.33282)" />
    <g
       id="g4687"
       transform="translate(-86.725822,-128.41447)"
       inkscape:export-xdpi="4.8461204"
       inkscape:export-ydpi="4.8461204">
      <polygon
         transform="matrix(0.26458333,0,0,0.26458333,-71.794546,166.33282)"
         style="fill:#020202"
         points="99.89,445.738 90.239,436.086 417.439,108.885 358.708,50.154 31.376,377.481 116.022,462.13 443.351,134.798 427.092,118.538 "
         id="polygon4485" />
      <path
         inkscape:connector-curvature="0"
         style="fill:#020202;stroke-width:0.26458332"
         d="m 59.038,188.46886 c -2.662767,6.20395 -11.391106,11.39111 -11.391106,11.39111 l -22.395921,-22.3954 c 0,0 7.22048,-8.86698 11.391371,-11.3911 4.170892,-2.52413 25.058687,16.19118 22.395656,22.39539 z"
         id="path4487" />
      <polygon
         transform="matrix(0.26458333,0,0,0.26458333,-71.794546,166.33282)"
         style="fill:#020202"
         points="25.413,383.447 110.059,468.088 0.127,493.638 "
         id="polygon4489" />
      <path
         inkscape:connector-curvature="0"
         id="path4665"
         d="m -62.351993,270.9822 c -5.218337,19.46264 -4.921333,19.69643 -4.921333,19.69643"
         style="fill:#ffffff;stroke:#ffffff;stroke-width:2;stroke-linecap:round;stroke-linejoin:round;stroke-miterlimit:4;stroke-dasharray:none;stroke-opacity:1" />
      <path
         inkscape:connector-curvature="0"
         id="path4665-6"
         d="m -60.507541,271.93038 c -7.015029,18.88955 -6.741183,19.15008 -6.741183,19.15008"
         style="fill:#ffffff;stroke:#ffffff;stroke-width:2;stroke-linecap:round;stroke-linejoin:round;stroke-miterlimit:4;stroke-dasharray:none;stroke-opacity:1" />
    </g>
    <g
       id="g4755"
       transform="matrix(0.26458333,0,0,0.26458333,55.639118,105.7614)">
      <g
         id="XMLID_13_">
        <g
           id="g4763"
           transform="matrix(1.0349219,1.0167072,-1.0167072,1.0349219,165.8665,-192.20126)"
           style="stroke-width:0.68928534"
           inkscape:export-xdpi="4.8461204"
           inkscape:export-ydpi="4.8461204">
          <path
             inkscape:connector-curvature="0"
             id="XMLID_958_"
             style="fill:#ffe98f;stroke-width:0.68928534"
             d="m 215,0 c -22.092,0 -40,17.909 -40,40 v 10 h 80 V 40 C 255,17.909 237.092,0 215,0 Z" />
          <rect
             id="XMLID_959_"
             x="215"
             y="80"
             style="fill:#00d7df;stroke-width:0.68928534"
             width="40"
             height="270" />
          <rect
             id="XMLID_960_"
             x="175"
             y="80"
             style="fill:#ccf7f9;stroke-width:0.68928534"
             width="40"
             height="270" />
          <polygon
             id="XMLID_961_"
             style="fill:#565659;stroke-width:0.68928534"
             points="255,50 175,50 175,80 215,80 255,80 " />
          <polygon
             id="XMLID_962_"
             style="fill:#ffe98f;stroke-width:0.68928534"
             points="255,350 215,350 175,350 194.98,389.961 235.02,389.961 " />
          <polygon
             id="XMLID_963_"
             style="fill:#565659;stroke-width:0.68928534"
             points="194.98,389.961 215,430 235.02,389.961 " />
        </g>
      </g>
      <g
         id="g4696" />
      <g
         id="g4698" />
      <g
         id="g4700" />
      <g
         id="g4702" />
      <g
         id="g4704" />
      <g
         id="g4706" />
      <g
         id="g4708" />
      <g
         id="g4710" />
      <g
         id="g4712" />
      <g
         id="g4714" />
      <g
         id="g4716" />
      <g
         id="g4718" />
      <g
         id="g4720" />
      <g
         id="g4722" />
      <g
         id="g4724" />
    </g>
  </g>
</svg>
